<?xml version="1.0" encoding="UTF-8" standalone="no"?>
<!-- Created with Inkscape (http://www.inkscape.org/) -->

<svg
   xmlns:dc="http://purl.org/dc/elements/1.1/"
   xmlns:cc="http://creativecommons.org/ns#"
   xmlns:rdf="http://www.w3.org/1999/02/22-rdf-syntax-ns#"
   xmlns:svg="http://www.w3.org/2000/svg"
   xmlns="http://www.w3.org/2000/svg"
   xmlns:sodipodi="http://sodipodi.sourceforge.net/DTD/sodipodi-0.dtd"
   xmlns:inkscape="http://www.inkscape.org/namespaces/inkscape"
   width="600"
   height="200"
   viewBox="0 0 158.75 52.916668"
   version="1.1"
   id="svg8"
   inkscape:version="0.92.3 (2405546, 2018-03-11)"
   sodipodi:docname="tif_svg_logo.svg"
   inkscape:export-filename="C:\Users\pmay\Projects\Tifinity\tifinity_logo_rosabelia_orange2.png"
   inkscape:export-xdpi="96"
   inkscape:export-ydpi="96"
   inkscape:label="Infinity">
  <defs
     id="defs2" />
  <sodipodi:namedview
     id="base"
     pagecolor="#ffffff"
     bordercolor="#666666"
     borderopacity="1.0"
     inkscape:pageopacity="0.0"
     inkscape:pageshadow="2"
     inkscape:zoom="1.3843825"
     inkscape:cx="337.59799"
     inkscape:cy="83.350571"
     inkscape:document-units="mm"
     inkscape:current-layer="g867"
     showgrid="false"
     units="px"
     inkscape:window-width="1366"
     inkscape:window-height="706"
     inkscape:window-x="-8"
     inkscape:window-y="-8"
     inkscape:window-maximized="1"
     inkscape:snap-global="false" />
  <metadata
     id="metadata5">
    <rdf:RDF>
      <cc:Work
         rdf:about="">
        <dc:format>image/svg+xml</dc:format>
        <dc:type
           rdf:resource="http://purl.org/dc/dcmitype/StillImage" />
        <dc:title />
      </cc:Work>
    </rdf:RDF>
  </metadata>
  <g
     inkscape:label="Layer 1"
     inkscape:groupmode="layer"
     id="layer1"
     transform="translate(0,-244.08332)"
     style="display:none;opacity:1" />
  <g
     id="g3725"
     inkscape:export-xdpi="96"
     inkscape:export-ydpi="96"
     transform="translate(37.299282,-0.67571162)"
     style="display:inline"
     inkscape:groupmode="layer"
     inkscape:label="Infinity">
    <g
       id="g4605"
       transform="rotate(-20,29.770397,59.810794)">
      <path
         sodipodi:nodetypes="cssscssscssssscscsscsscsscsscccsscccccsscc"
         inkscape:connector-curvature="0"
         id="path3739"
         d="M 10.587396,40.529738 C 8.1281011,39.679868 6.6356145,38.461113 5.2726185,36.189718 3.9104117,33.919639 2.8617354,30.017113 3.2320434,28.595957 c 0.2419113,-0.928399 0.292911,-0.865007 0.7603729,0.945132 0.6319368,2.447032 2.0370957,4.737371 3.7567899,6.123378 1.0978754,0.884848 1.7293352,1.101842 3.5423588,1.217285 2.628417,0.167365 4.604104,-0.61715 7.110724,-2.823566 1.58488,-1.395067 5.103527,-5.52146 6.350961,-7.447907 l 0.6414,-0.990533 -2.261542,-2.206618 C 20.61542,20.956583 17.86733,19.473753 15.168993,19.115806 10.284391,18.467841 5.3116259,21.585984 3.9266219,26.165267 3.4970973,27.585418 3.4897165,27.590384 3.2382854,26.628354 2.403197,23.433124 5.9689845,17.448602 9.6157981,15.924866 c 1.5644709,-0.653677 5.6718569,-0.630871 7.5792149,0.04209 2.282251,0.805225 5.06517,3.08397 7.120552,5.83054 1.009189,1.348562 1.918376,2.451062 2.020414,2.449998 0.102037,-0.0011 1.538323,-1.31075 3.191743,-2.910416 3.832016,-3.707433 6.231519,-4.970211 9.785278,-5.149668 2.218267,-0.112017 2.824328,-0.0026 4.485026,0.809932 3.315522,1.622134 5.473386,5.205019 5.748753,9.545141 0.214486,3.38056 -0.375048,6.214716 -1.944606,9.34861 -1.159965,2.316074 -1.533408,2.749159 -2.996353,3.474861 -1.189877,0.590247 -2.276242,0.829028 -3.77179,0.829028 -3.847349,0 -7.113591,-2.14654 -10.214539,-6.712892 -0.796801,-1.173342 -1.589793,-2.220531 -1.762202,-2.327087 -0.311905,-0.192769 -1.538686,1.092094 -3.214638,3.366847 -2.268168,3.078557 -5.337736,5.163301 -9.011261,6.120133 -2.645866,0.689162 -3.786243,0.667985 -6.043994,-0.11224 z m 33.731492,-4.805789 c 1.425871,-0.737344 3.360385,-3.114981 3.841803,-4.72181 1.233551,-4.117226 -0.46469,-8.690093 -3.894589,-10.486981 -1.249038,-0.654358 -3.931239,-0.636859 -5.228759,0.03411 -1.587404,0.820879 -5.616765,4.782306 -6.35522,5.502084 l -1.418231,1.508209 c -0.859575,1.058525 0,0 -0.859575,1.058525 l -0.611458,0.990952 2.328396,2.27185 c 3.050745,2.976654 5.899704,4.362312 8.969847,4.362696 1.268427,1.59e-4 2.653947,-0.222895 3.227786,-0.519638 z"
         style="fill:#e8f6f4;stroke-width:0.35277775" />
      <path
         sodipodi:nodetypes="csccssscccscssscscsscccssssssscs"
         inkscape:connector-curvature="0"
         id="path3737"
         d="M 9.5530692,39.301553 C 7.8886074,38.506452 6.2367806,36.828144 6.2367806,35.932095 c 0,-0.208583 0.7273251,0.133421 1.6162777,0.760014 1.4095112,0.993514 1.8946592,1.137126 3.7923607,1.122613 1.630581,-0.01249 2.618524,-0.246087 3.941039,-0.93193 1.83935,-0.953868 6.780907,-5.825743 8.994766,-8.867928 5.777409,-7.939059 11.253649,-11.652257 16.302858,-11.054253 2.013899,0.238516 4.600024,1.619383 5.443375,2.906503 0.819855,1.251254 0.413342,1.381049 -1.102858,0.35213 -1.661918,-1.127809 -3.418356,-1.460561 -5.08067,-0.962518 -2.412139,0.722693 -10.174067,8.835326 -11.145523,9.977796 0,0 0,0 -0.617361,0.72604 0,0 -1.644095,2.057616 -3.105458,3.870001 -2.351273,2.916054 -2.969805,3.454728 -5.375132,4.681156 -2.382745,1.214914 -3.077781,1.40215 -5.633252,1.517551 -2.526194,0.114078 -3.155174,0.01697 -4.7141338,-0.727717 z M 38.11544,39.03467 c -1.899998,-0.550662 -4.466011,-2.535358 -5.85264,-4.526749 -0.732366,-1.051786 -1.331577,-2.052694 -1.331577,-2.224246 0,-0.171549 0.912813,0.435416 2.028472,1.34881 2.946128,2.412005 5.398682,3.448442 8.218547,3.473115 2.01985,0.01767 2.527212,-0.121373 4.045225,-1.10864 0.954638,-0.620864 1.789987,-1.074568 1.85633,-1.008224 0.06634,0.06634 -0.166511,0.733075 -0.51745,1.481627 -1.147668,2.447978 -4.908723,3.589754 -8.446907,2.564307 z M 21.053446,20.683715 c -2.429141,-1.654973 -4.791232,-2.431514 -7.396201,-2.431514 -2.463534,0 -3.7608218,0.427127 -6.1207324,2.01523 -2.0831364,1.401847 -2.5057052,1.068717 -1.1818746,-0.931726 2.5098091,-3.792577 9.385967,-4.20478 13.785475,-0.826393 1.674644,1.28596 3.319836,3.134364 3.006375,3.377716 -0.08402,0.06523 -1.025889,-0.476262 -2.093042,-1.203313 z"
         style="fill:#d0ede9;stroke-width:0.35277775" />
      <path
         inkscape:connector-curvature="0"
         id="path3735"
         d="m 11.175669,39.335148 -1.234722,-0.372865 2.116666,-0.40925 c 1.164167,-0.225087 2.749074,-0.71367 3.522016,-1.085744 2.032559,-0.978412 6.183572,-5.064996 9.482851,-9.335664 6.665164,-8.627548 11.099065,-11.449719 16.344062,-10.402966 l 1.342736,0.267973 -1.685745,0.446575 c -0.92716,0.245616 -2.117785,0.724552 -2.645833,1.064302 -2.113534,1.359861 -6.39022,5.210899 -8.035805,7.23602 -0.959051,1.180244 -2.616852,3.220953 -3.684005,4.534906 -1.067153,1.313956 -2.516496,3.095159 -3.220763,3.958233 -1.483258,1.817716 -4.577001,3.575872 -7.291739,4.143851 -2.225046,0.465522 -3.351702,0.45532 -5.009719,-0.04537 z M 37.29684,38.174844 c -1.495411,-0.670778 -3.543395,-2.201901 -3.543395,-2.649124 0,-0.181204 0.992188,0.17932 2.204861,0.801169 2.667906,1.368079 6.539819,1.769039 8.352176,0.864916 1.378591,-0.687734 1.769868,-0.12373 0.494128,0.712258 -1.319276,0.864513 -5.822078,1.026915 -7.50777,0.270781 z M 7.1614922,19.149906 c 0.1083568,-0.282373 1.0076691,-0.917373 1.9984715,-1.411111 2.0334303,-1.013301 5.6062023,-1.215368 7.4653993,-0.422224 0.930724,0.397053 0.688532,0.441705 -2.30552,0.425061 -2.980963,-0.01657 -3.549485,0.08711 -5.2176668,0.951541 -2.1749933,1.127055 -2.2001859,1.132984 -1.940684,0.456733 z"
         style="fill:#bce6e0;stroke-width:0.35277775" />
      <path
         inkscape:connector-curvature="0"
         id="path3733"
         d="m 13.292336,39.152219 c 0,-0.146657 0.808871,-0.637727 1.797492,-1.091265 2.381598,-1.092578 6.361319,-4.925677 10.303126,-9.923535 5.758078,-7.300724 9.025435,-9.833833 13.061212,-10.12606 1.570521,-0.11372 1.732774,-0.06915 1.160985,0.318907 -4.12684,2.800778 -8.626707,6.90871 -10.908477,9.958358 -4.454682,5.953803 -6.650809,8.325976 -8.627628,9.319236 -2.587045,1.29987 -6.78671,2.255527 -6.78671,1.544359 z"
         style="fill:#afe2db;stroke-width:0.35277775" />
      <path
         inkscape:connector-curvature="0"
         id="path3731"
         d="m 20.386465,34.215394 c 2.219439,-2.279826 4.926313,-5.339669 6.015279,-6.799653 1.088961,-1.459983 2.836206,-3.523732 3.882763,-4.586111 2.075664,-2.107046 5.859561,-4.338103 7.055795,-4.160234 0.617728,0.09185 0.183932,0.601997 -2.414181,2.839078 -2.876278,2.476591 -5.071883,4.781935 -6.993509,7.343065 -4.045143,5.391329 -5.96256,7.408082 -8.02129,8.436842 -3.982288,1.98997 -3.893276,1.41429 0.475143,-3.072987 z"
         style="fill:#8fd7cd;stroke-width:0.35277775" />
      <path
         inkscape:connector-curvature="0"
         id="path3729"
         d="m 18.584002,37.025308 c 0,-0.152291 1.230312,-1.556107 2.734027,-3.119593 1.503716,-1.563486 3.686528,-4.086577 4.850694,-5.606871 3.068144,-4.006706 5.079601,-6.141246 6.860039,-7.279807 2.801486,-1.791501 2.728178,-1.061421 -0.173934,1.732271 -1.56139,1.50306 -4.221409,4.479087 -5.911147,6.613392 -5.001084,6.316863 -5.174518,6.506866 -6.60605,7.237179 -1.516597,0.773709 -1.753629,0.830943 -1.753629,0.423429 z"
         style="fill:#76cec2;stroke-width:0.35277775" />
      <path
         inkscape:connector-curvature="0"
         id="path3727"
         d="m 20.658384,35.003404 c 0.599027,-0.682254 1.618615,-1.705345 2.265751,-2.273539 0.647136,-0.568191 2.113417,-2.272171 3.258403,-3.786622 1.144983,-1.514448 2.776132,-3.541364 3.62477,-4.504255 1.485068,-1.685001 3.599431,-3.476085 3.830606,-3.244913 0.06126,0.06126 -1.164188,1.434077 -2.723211,3.050704 -1.559028,1.616627 -3.264655,3.536629 -3.790287,4.26667 -3.45869,4.803727 -6.11161,7.732417 -7.004314,7.732417 -0.397236,0 -0.247121,-0.345937 0.538282,-1.240462 z"
         style="fill:#67c9bc;stroke-width:0.35277775" />
    </g>
  </g>
  <g
     inkscape:groupmode="layer"
     id="layer2"
     inkscape:label="F-layer"
     style="display:inline">
    <g
       id="g4610"
       transform="rotate(15,30.99012,130.08474)">
      <path
         inkscape:export-ydpi="96"
         inkscape:export-xdpi="96"
         sodipodi:nodetypes="cscssssssssscsssssscsc"
         inkscape:connector-curvature="0"
         id="path4542"
         d="m 14.495069,46.282673 c 0,0 2.239049,0.532032 4.090402,-0.239342 1.851355,-0.771371 4.071205,-2.233232 5.135716,-3.980207 0.638271,-0.784811 1.053257,-1.759867 1.566243,-3.161105 0.311409,-0.850622 0.478452,-1.757531 0.643496,-2.635712 0.165044,-0.878177 0.257307,-2.497098 0.310308,-3.393271 0.04751,-0.80336 0.07098,-2.28418 0.141719,-4.021157 0.07073,-1.73698 0.188731,-3.730121 0.425291,-5.558129 0.236561,-1.828007 0.649877,-3.491067 1.055397,-4.81807 0.488786,-1.599475 0.596844,-1.812887 1.177401,-3.208608 0.439727,-1.057149 1.509708,-2.44992 2.617336,-3.283818 1.107628,-0.833898 2.759633,-1.525311 4.642127,-1.61725 1.917597,-0.09365 -1.303915,0.435767 -1.303915,0.435767 0,0 -1.819583,0.351442 -3.283319,1.84299 -1.463739,1.49155 -2.58722,3.824457 -3.1345,6.102819 -0.62936,2.620072 -0.998985,5.700925 -1.141114,9.000913 -0.07887,1.83126 -0.273668,4.231612 -0.320829,5.065451 -0.09602,1.697783 -0.265786,2.949757 -0.571393,4.174846 -0.419267,1.680707 -1.024119,3.274198 -1.60546,4.276824 -0.58134,1.002625 -1.128383,1.876982 -1.942857,2.558941 -2.614065,2.462004 -4.889112,2.786415 -6.039899,2.892262 -1.150787,0.105846 -2.46215,-0.434144 -2.46215,-0.434144 z"
         style="fill:#337ca0;fill-opacity:1;stroke:none;stroke-width:0.26458332px;stroke-linecap:butt;stroke-linejoin:miter;stroke-opacity:1" />
      <path
         inkscape:export-ydpi="96"
         inkscape:export-xdpi="96"
         sodipodi:nodetypes="ccssccc"
         inkscape:connector-curvature="0"
         id="path4546"
         d="m 27.686825,27.23942 c 1.601008,0.453835 1.764391,0.403621 2.972511,0.855071 1.424014,0.465256 5.093729,1.708521 3.445947,1.336382 C 32.719581,29.117922 32.392315,28.902534 31.347171,28.701094 30.277307,28.49489 27.63239,27.856677 27.63239,27.856677 l 0.06622,-0.306776 z"
         style="fill:#337ca0;fill-opacity:1;stroke:none;stroke-width:0.26458332px;stroke-linecap:butt;stroke-linejoin:miter;stroke-opacity:1" />
      <path
         inkscape:export-ydpi="96"
         inkscape:export-xdpi="96"
         inkscape:connector-curvature="0"
         id="path4548"
         d="m 26.28495,27.336844 c 0,0 -1.118276,-0.536799 -2.344469,-0.874302 -1.226192,-0.337504 -4.179578,-1.197886 -3.188657,-0.901866 0.990922,0.296019 -0.896813,-0.279426 -1.669058,-0.439852 -0.772245,-0.160426 1.743731,0.01637 1.743731,0.01637 0,0 0.780542,0.113372 1.77976,0.362337 0.999219,0.248965 2.322304,0.724846 2.936794,0.95449 0.614489,0.229643 0.736273,0.226858 0.736273,0.226858 z"
         style="fill:#337ca0;fill-opacity:1;stroke:none;stroke-width:0.26458332px;stroke-linecap:butt;stroke-linejoin:miter;stroke-opacity:1" />
    </g>
  </g>
  <g
     style="display:none"
     inkscape:label="F-layer orange"
     id="g4591"
     inkscape:groupmode="layer">
    <g
       transform="rotate(15,30.220884,130.17109)"
       id="g4589">
      <path
         style="fill:#fc4a1a;fill-opacity:1;stroke:none;stroke-width:0.26458332px;stroke-linecap:butt;stroke-linejoin:miter;stroke-opacity:1"
         d="m 14.495069,46.282673 c 0,0 2.239049,0.532032 4.090402,-0.239342 1.851355,-0.771371 4.071205,-2.233232 5.135716,-3.980207 0.638271,-0.784811 1.053257,-1.759867 1.566243,-3.161105 0.311409,-0.850622 0.478452,-1.757531 0.643496,-2.635712 0.165044,-0.878177 0.257307,-2.497098 0.310308,-3.393271 0.04751,-0.80336 0.07098,-2.28418 0.141719,-4.021157 0.07073,-1.73698 0.188731,-3.730121 0.425291,-5.558129 0.236561,-1.828007 0.649877,-3.491067 1.055397,-4.81807 0.488786,-1.599475 0.596844,-1.812887 1.177401,-3.208608 0.439727,-1.057149 1.509708,-2.44992 2.617336,-3.283818 1.107628,-0.833898 2.759633,-1.525311 4.642127,-1.61725 1.917597,-0.09365 -1.303915,0.435767 -1.303915,0.435767 0,0 -1.819583,0.351442 -3.283319,1.84299 -1.463739,1.49155 -2.58722,3.824457 -3.1345,6.102819 -0.62936,2.620072 -0.998985,5.700925 -1.141114,9.000913 -0.07887,1.83126 -0.273668,4.231612 -0.320829,5.065451 -0.09602,1.697783 -0.265786,2.949757 -0.571393,4.174846 -0.419267,1.680707 -1.024119,3.274198 -1.60546,4.276824 -0.58134,1.002625 -1.128383,1.876982 -1.942857,2.558941 -2.614065,2.462004 -4.889112,2.786415 -6.039899,2.892262 -1.150787,0.105846 -2.46215,-0.434144 -2.46215,-0.434144 z"
         id="path4583"
         inkscape:connector-curvature="0"
         sodipodi:nodetypes="cscssssssssscsssssscsc"
         inkscape:export-xdpi="96"
         inkscape:export-ydpi="96" />
      <path
         style="fill:#fc4a1a;fill-opacity:1;stroke:none;stroke-width:0.26458332px;stroke-linecap:butt;stroke-linejoin:miter;stroke-opacity:1"
         d="m 27.686825,27.23942 c 1.601008,0.453835 1.764391,0.403621 2.972511,0.855071 1.424014,0.465256 5.093729,1.708521 3.445947,1.336382 C 32.719581,29.117922 32.392315,28.902534 31.347171,28.701094 30.277307,28.49489 27.63239,27.856677 27.63239,27.856677 l 0.06622,-0.306776 z"
         id="path4585"
         inkscape:connector-curvature="0"
         sodipodi:nodetypes="ccssccc"
         inkscape:export-xdpi="96"
         inkscape:export-ydpi="96" />
      <path
         style="fill:#fc4a1a;fill-opacity:1;stroke:none;stroke-width:0.26458332px;stroke-linecap:butt;stroke-linejoin:miter;stroke-opacity:1"
         d="m 26.28495,27.336844 c 0,0 -1.118276,-0.536799 -2.344469,-0.874302 -1.226192,-0.337504 -4.179578,-1.197886 -3.188657,-0.901866 0.990922,0.296019 -0.896813,-0.279426 -1.669058,-0.439852 -0.772245,-0.160426 1.743731,0.01637 1.743731,0.01637 0,0 0.780542,0.113372 1.77976,0.362337 0.999219,0.248965 2.322304,0.724846 2.936794,0.95449 0.614489,0.229643 0.736273,0.226858 0.736273,0.226858 z"
         id="path4587"
         inkscape:connector-curvature="0"
         inkscape:export-xdpi="96"
         inkscape:export-ydpi="96" />
    </g>
  </g>
  <g
     style="display:none"
     inkscape:label="Tifinity-Esteh"
     id="g847"
     inkscape:groupmode="layer">
    <text
       id="text841"
       y="44.672985"
       x="4.5948377"
       style="font-style:normal;font-variant:normal;font-weight:normal;font-stretch:normal;font-size:10.58333302px;line-height:1.25;font-family:'Freestyle Script';-inkscape-font-specification:'Freestyle Script';letter-spacing:0px;word-spacing:0px;display:inline;fill:#fc4a1a;fill-opacity:1;stroke:none;stroke-width:0.26458332"
       xml:space="preserve"><tspan
         style="font-style:normal;font-variant:normal;font-weight:normal;font-stretch:normal;font-size:50.79999924px;font-family:Esteh;-inkscape-font-specification:Esteh;fill:#fc4a1a;fill-opacity:1;stroke-width:0.26458332"
         y="44.672985"
         x="4.5948377"
         id="tspan839"
         sodipodi:role="line">ti</tspan></text>
    <text
       id="text845"
       y="44.549099"
       x="71.770439"
       style="font-style:normal;font-variant:normal;font-weight:normal;font-stretch:normal;font-size:10.58333302px;line-height:1.25;font-family:'Freestyle Script';-inkscape-font-specification:'Freestyle Script';letter-spacing:0px;word-spacing:0px;fill:#000000;fill-opacity:1;stroke:none;stroke-width:0.26458332"
       xml:space="preserve"><tspan
         style="font-style:normal;font-variant:normal;font-weight:normal;font-stretch:normal;font-size:50.79999924px;font-family:Esteh;-inkscape-font-specification:Esteh;fill:#fc4a1a;fill-opacity:1;stroke-width:0.26458332"
         y="44.549099"
         x="71.770439"
         id="tspan843"
         sodipodi:role="line">inity</tspan></text>
  </g>
  <g
     inkscape:groupmode="layer"
     id="g857"
     inkscape:label="Tifinity-Esteh blue"
     style="display:none">
    <text
       xml:space="preserve"
       style="font-style:normal;font-variant:normal;font-weight:normal;font-stretch:normal;font-size:10.58333302px;line-height:1.25;font-family:'Freestyle Script';-inkscape-font-specification:'Freestyle Script';letter-spacing:0px;word-spacing:0px;display:inline;fill:#fc4a1a;fill-opacity:1;stroke:none;stroke-width:0.26458332"
       x="4.5948377"
       y="44.672985"
       id="text851"><tspan
         sodipodi:role="line"
         id="tspan849"
         x="4.5948377"
         y="44.672985"
         style="font-style:normal;font-variant:normal;font-weight:normal;font-stretch:normal;font-size:50.79999924px;font-family:Esteh;-inkscape-font-specification:Esteh;fill:#337ca0;fill-opacity:1;stroke-width:0.26458332">ti</tspan></text>
    <text
       xml:space="preserve"
       style="font-style:normal;font-variant:normal;font-weight:normal;font-stretch:normal;font-size:10.58333302px;line-height:1.25;font-family:'Freestyle Script';-inkscape-font-specification:'Freestyle Script';letter-spacing:0px;word-spacing:0px;fill:#000000;fill-opacity:1;stroke:none;stroke-width:0.26458332"
       x="71.770439"
       y="44.549099"
       id="text855"><tspan
         sodipodi:role="line"
         id="tspan853"
         x="71.770439"
         y="44.549099"
         style="font-style:normal;font-variant:normal;font-weight:normal;font-stretch:normal;font-size:50.79999924px;font-family:Esteh;-inkscape-font-specification:Esteh;fill:#337ca0;fill-opacity:1;stroke-width:0.26458332">inity</tspan></text>
  </g>
  <g
     inkscape:groupmode="layer"
     id="g867"
     inkscape:label="Tifinity-rosabelia"
     style="display:inline">
    <g
       aria-label="ti"
       style="font-style:normal;font-variant:normal;font-weight:normal;font-stretch:normal;font-size:10.58333302px;line-height:1.25;font-family:'Freestyle Script';-inkscape-font-specification:'Freestyle Script';letter-spacing:0px;word-spacing:0px;display:inline;fill:#fc4a1a;fill-opacity:1;stroke:none;stroke-width:0.26458332"
       id="text861">
      <path
         d="m 30.820958,12.124947 q 0.211667,0.141111 0.211667,0.423334 0,0.705555 -0.635,1.27 -0.635,0.493889 -1.552222,0.917222 -0.846667,0.352778 -1.763889,0.564444 -0.846667,0.211667 -1.340556,0.211667 -0.776111,0 -1.834444,-0.211667 -1.058334,-0.282222 -2.257778,-0.635 -0.564444,0.776112 -1.905,2.610556 -1.340556,1.834445 -3.033889,4.233333 -1.693333,2.328334 -3.527778,5.080001 -1.763889,2.681111 -3.2455555,5.221111 -1.4816667,2.469444 -2.4694445,4.515556 -0.9172223,2.046111 -0.9172223,3.104444 0,0.564444 0.2116667,0.705556 0.2822222,0.141111 0.7055556,0.141111 0.9172222,-0.07056 2.4694445,-0.987778 1.5522225,-0.917222 3.3866665,-2.257778 1.834445,-1.340556 3.739445,-2.892778 1.975555,-1.552222 3.598333,-2.963333 l 3.386667,-2.822222 q 0.423333,-0.282223 0.635,-0.282223 0.423333,0 0.423333,0.493889 0,0.211667 -1.058333,1.27 -0.987778,0.987778 -2.681111,2.469445 -1.622778,1.411111 -3.739445,3.033889 -2.046111,1.622778 -4.092222,3.033889 -2.046111,1.340555 -3.8805557,2.257778 -1.8344445,0.917222 -3.033889,0.917222 -0.8466667,0 -1.27,-0.635 -0.4233334,-0.635 -0.4233334,-1.411111 0,-1.199445 0.7055556,-3.104445 0.7761111,-1.905 1.9755556,-4.162778 1.1994445,-2.257778 2.6811109,-4.656667 1.552223,-2.469444 3.033889,-4.797777 1.552223,-2.328334 2.963334,-4.303889 1.411111,-2.046112 2.398889,-3.457223 l 0.776111,-0.987778 q -0.705556,-0.493888 -1.975556,-0.635 -1.27,-0.211666 -2.610555,-0.211666 -1.411112,0 -2.398889,0.141111 -0.917223,0.07056 -1.622778,0.282222 -0.705556,0.141111 -1.1994447,0.423333 -0.4233334,0.211667 -0.9172223,0.493889 l -1.1288889,0.635 q -0.4233333,0.211667 -0.7055556,0.211667 -0.4233333,0 -0.4233333,-0.352778 0,-0.352778 0.3527778,-0.846666 0.4233333,-0.564445 1.27,-0.987778 0.8466667,-0.493889 2.187222,-0.846667 1.340556,-0.352778 3.175,-0.352778 2.681112,0 6.279445,0.917223 0.423333,0 1.128889,-0.987778 0.705555,-0.987778 1.481667,-2.116667 0.776111,-1.1994445 1.552222,-2.1872223 0.846667,-0.9877778 1.622778,-0.9877778 0.776111,0 0.776111,0.9172223 0,0.7055555 -0.917222,1.9755556 -0.846667,1.2700002 -1.763889,2.4694442 l -1.27,1.693334 q 1.552222,0.423333 2.751666,0.423333 1.27,0 2.187223,-0.282222 0.917222,-0.352778 1.552222,-0.705556 0.635,-0.423333 1.058333,-0.705555 0.423334,-0.352778 0.635,-0.352778 0.141111,0 0.282222,0.07056 z"
         style="font-style:normal;font-variant:normal;font-weight:normal;font-stretch:normal;font-size:70.55555725px;font-family:'Rosabelia SLDT';-inkscape-font-specification:'Rosabelia SLDT';fill:#fc4a1a;fill-opacity:1;stroke-width:0.26458332"
         id="path4604" />
      <path
         d="m 36.682582,27.858837 q 0.352778,0 0.352778,0.493889 0,0.635 -0.141112,0.776111 -0.211666,0.211666 -1.763888,1.693333 -1.481667,1.481667 -3.598334,3.175 -2.116667,1.622778 -4.515556,2.963334 -2.398888,1.340555 -4.515555,1.340555 -1.199445,0 -1.693334,-0.423333 -0.493888,-0.423334 -0.493888,-1.411111 0,-1.058334 0.635,-2.469445 0.635,-1.411111 1.411111,-2.751667 0.776111,-1.411111 1.411111,-2.54 0.705555,-1.128889 0.776111,-1.552222 0.776111,-1.199444 1.622778,-1.199444 0.846666,0 0.846666,0.987777 0,0.635 -0.423333,1.340556 -0.352778,0.564444 -1.058333,1.763889 -0.705556,1.128889 -1.481667,2.469444 -0.705556,1.340556 -1.27,2.54 -0.493889,1.199445 -0.493889,1.834445 0.141111,0.352778 0.776111,0.352778 0.917223,0 2.257778,-0.705556 1.340556,-0.705555 2.822222,-1.693333 1.481667,-1.058334 2.963334,-2.257778 1.552222,-1.27 2.751667,-2.257778 1.199444,-1.058333 1.975555,-1.763889 0.776111,-0.705555 0.846667,-0.705555 z m -6.773334,-5.362223 q -0.846666,1.128889 -1.622777,1.128889 -1.128889,0 -1.128889,-0.987778 0,-0.352777 0.493888,-0.917222 0.493889,-0.564444 1.481667,-0.564444 0.917222,0 0.917222,0.776111 0,0.141111 -0.141111,0.564444 z"
         style="font-style:normal;font-variant:normal;font-weight:normal;font-stretch:normal;font-size:70.55555725px;font-family:'Rosabelia SLDT';-inkscape-font-specification:'Rosabelia SLDT';fill:#fc4a1a;fill-opacity:1;stroke-width:0.26458332"
         id="path4606" />
    </g>
    <g
       aria-label="inity"
       style="font-style:normal;font-variant:normal;font-weight:normal;font-stretch:normal;font-size:10.58333302px;line-height:1.25;font-family:'Freestyle Script';-inkscape-font-specification:'Freestyle Script';letter-spacing:0px;word-spacing:0px;fill:#000000;fill-opacity:1;stroke:none;stroke-width:0.26458332"
       id="text865">
      <path
         d="m 83.787757,27.858837 q 0.352778,0 0.352778,0.493889 0,0.635 -0.141111,0.776111 -0.211667,0.211666 -1.763889,1.693333 -1.481667,1.481667 -3.598333,3.175 -2.116667,1.622778 -4.515556,2.963334 -2.398889,1.340555 -4.515556,1.340555 -1.199444,0 -1.693333,-0.423333 -0.493889,-0.423334 -0.493889,-1.411111 0,-1.058334 0.635,-2.469445 0.635,-1.411111 1.411111,-2.751667 0.776111,-1.411111 1.411111,-2.54 0.705556,-1.128889 0.776111,-1.552222 0.776112,-1.199444 1.622778,-1.199444 0.846667,0 0.846667,0.987777 0,0.635 -0.423333,1.340556 -0.352778,0.564444 -1.058334,1.763889 -0.705555,1.128889 -1.481666,2.469444 -0.705556,1.340556 -1.27,2.54 -0.493889,1.199445 -0.493889,1.834445 0.141111,0.352778 0.776111,0.352778 0.917222,0 2.257778,-0.705556 1.340555,-0.705555 2.822222,-1.693333 1.481667,-1.058334 2.963333,-2.257778 1.552223,-1.27 2.751667,-2.257778 1.199444,-1.058333 1.975556,-1.763889 0.776111,-0.705555 0.846666,-0.705555 z m -6.773333,-5.362223 q -0.846667,1.128889 -1.622778,1.128889 -1.128889,0 -1.128889,-0.987778 0,-0.352777 0.493889,-0.917222 0.493889,-0.564444 1.481667,-0.564444 0.917222,0 0.917222,0.776111 0,0.141111 -0.141111,0.564444 z"
         style="font-style:normal;font-variant:normal;font-weight:normal;font-stretch:normal;font-size:70.55555725px;font-family:'Rosabelia SLDT';-inkscape-font-specification:'Rosabelia SLDT';fill:#fc4a1a;fill-opacity:1;stroke-width:0.26458332"
         id="path4593" />
      <path
         d="m 104.81111,28.141059 q 0.14111,0 0.21167,-0.07056 0.0705,-0.07055 0.21166,-0.07055 0.28222,0 0.28222,0.282222 0,0.141111 -0.21166,0.493889 -0.14111,0.282222 -0.35278,0.564444 h 0.0706 q -0.84667,0.846667 -2.61056,2.469445 -1.69333,1.622778 -3.739445,3.245555 -1.975556,1.622778 -4.021667,2.892778 -1.975556,1.199445 -3.386667,1.199445 -1.199444,0 -1.763889,-0.705556 -0.493888,-0.776111 -0.493888,-1.481666 0,-1.270001 0.987777,-2.963334 1.058334,-1.693333 2.257778,-3.316111 1.199445,-1.693333 2.187222,-3.033889 1.058334,-1.411111 1.058334,-2.116667 0,-0.635 -0.846667,-0.635 -1.058333,0 -2.54,1.128889 -1.411111,1.128889 -3.104444,2.822222 -1.622778,1.622778 -3.245556,3.598334 -1.622778,1.975555 -3.033889,3.668889 -1.340556,1.693333 -2.398889,2.892778 -0.987778,1.128889 -1.27,1.128889 -0.141111,0.07056 -0.352778,0.07056 -0.635,0 -0.635,-0.987778 0,-0.705555 0.282222,-1.27 0.282223,-0.635 1.128889,-2.469444 0.917223,-1.905 1.905,-3.951111 0.987778,-2.116667 1.834445,-3.880556 0.917222,-1.763889 1.199444,-2.116667 0.705556,-0.705555 1.27,-0.705555 0.987778,0 0.987778,1.058333 0,0.141111 -0.07055,0.493889 -0.07056,0.282222 -0.211667,0.493889 l -0.423333,0.776111 q -1.340556,2.398889 -1.975556,3.598333 -0.564445,1.128889 -0.564445,1.481667 0,0.07056 0.07056,0.07056 0.141111,-0.141111 0.776111,-0.846667 0.635,-0.705556 1.552222,-1.693333 0.987778,-0.987778 2.116667,-2.116667 1.199445,-1.199445 2.398889,-2.187222 1.199445,-0.987778 2.328333,-1.622778 1.199445,-0.635 2.116667,-0.635 0.564445,0 1.199445,0.423333 0.705555,0.423333 0.705555,1.622778 0,1.27 -0.917222,3.033889 -0.917222,1.693333 -2.046111,3.457222 -1.128889,1.693334 -2.046111,3.175 -0.917223,1.411111 -0.917223,2.116667 0,0.564444 0.635,0.564444 1.340556,0 3.316112,-1.411111 1.975555,-1.411111 3.880555,-3.175 1.975551,-1.763889 3.668891,-3.316111 1.69333,-1.622778 2.54,-2.046111 z"
         style="font-style:normal;font-variant:normal;font-weight:normal;font-stretch:normal;font-size:70.55555725px;font-family:'Rosabelia SLDT';-inkscape-font-specification:'Rosabelia SLDT';fill:#fc4a1a;fill-opacity:1;stroke-width:0.26458332"
         id="path4595" />
      <path
         d="m 116.86068,27.858837 q 0.35277,0 0.35277,0.493889 0,0.635 -0.14111,0.776111 -0.21166,0.211666 -1.76389,1.693333 -1.48166,1.481667 -3.59833,3.175 -2.11667,1.622778 -4.51556,2.963334 -2.39889,1.340555 -4.51555,1.340555 -1.19945,0 -1.69334,-0.423333 -0.49388,-0.423334 -0.49388,-1.411111 0,-1.058334 0.635,-2.469445 0.635,-1.411111 1.41111,-2.751667 0.77611,-1.411111 1.41111,-2.54 0.70555,-1.128889 0.77611,-1.552222 0.77611,-1.199444 1.62278,-1.199444 0.84666,0 0.84666,0.987777 0,0.635 -0.42333,1.340556 -0.35278,0.564444 -1.05833,1.763889 -0.70556,1.128889 -1.48167,2.469444 -0.70556,1.340556 -1.27,2.54 -0.49389,1.199445 -0.49389,1.834445 0.14111,0.352778 0.77611,0.352778 0.91722,0 2.25778,-0.705556 1.34056,-0.705555 2.82222,-1.693333 1.48167,-1.058334 2.96334,-2.257778 1.55222,-1.27 2.75166,-2.257778 1.19945,-1.058333 1.97556,-1.763889 0.77611,-0.705555 0.84667,-0.705555 z m -6.77334,-5.362223 q -0.84666,1.128889 -1.62278,1.128889 -1.12888,0 -1.12888,-0.987778 0,-0.352777 0.49388,-0.917222 0.49389,-0.564444 1.48167,-0.564444 0.91722,0 0.91722,0.776111 0,0.141111 -0.14111,0.564444 z"
         style="font-style:normal;font-variant:normal;font-weight:normal;font-stretch:normal;font-size:70.55555725px;font-family:'Rosabelia SLDT';-inkscape-font-specification:'Rosabelia SLDT';fill:#fc4a1a;fill-opacity:1;stroke-width:0.26458332"
         id="path4597" />
      <path
         d="m 137.31958,12.124947 q 0.21167,0.141111 0.21167,0.423334 0,0.705555 -0.635,1.27 -0.635,0.493889 -1.55222,0.917222 -0.84667,0.352778 -1.76389,0.564444 -0.84667,0.211667 -1.34056,0.211667 -0.77611,0 -1.83444,-0.211667 -1.05834,-0.282222 -2.25778,-0.635 -0.56445,0.776112 -1.905,2.610556 -1.34056,1.834445 -3.03389,4.233333 -1.69333,2.328334 -3.52778,5.080001 -1.76389,2.681111 -3.24555,5.221111 -1.48167,2.469444 -2.46945,4.515556 -0.91722,2.046111 -0.91722,3.104444 0,0.564444 0.21167,0.705556 0.28222,0.141111 0.70555,0.141111 0.91722,-0.07056 2.46945,-0.987778 1.55222,-0.917222 3.38666,-2.257778 1.83445,-1.340556 3.73945,-2.892778 1.97555,-1.552222 3.59833,-2.963333 l 3.38667,-2.822222 q 0.42333,-0.282223 0.635,-0.282223 0.42333,0 0.42333,0.493889 0,0.211667 -1.05833,1.27 -0.98778,0.987778 -2.68111,2.469445 -1.62278,1.411111 -3.73945,3.033889 -2.04611,1.622778 -4.09222,3.033889 -2.04611,1.340555 -3.88056,2.257778 -1.83444,0.917222 -3.03389,0.917222 -0.84666,0 -1.27,-0.635 -0.42333,-0.635 -0.42333,-1.411111 0,-1.199445 0.70556,-3.104445 0.77611,-1.905 1.97555,-4.162778 1.19945,-2.257778 2.68111,-4.656667 1.55223,-2.469444 3.03389,-4.797777 1.55222,-2.328334 2.96334,-4.303889 1.41111,-2.046112 2.39889,-3.457223 l 0.77611,-0.987778 q -0.70556,-0.493888 -1.97556,-0.635 -1.27,-0.211666 -2.61056,-0.211666 -1.41111,0 -2.39888,0.141111 -0.91723,0.07056 -1.62278,0.282222 -0.70556,0.141111 -1.19945,0.423333 -0.42333,0.211667 -0.91722,0.493889 l -1.12889,0.635 q -0.42333,0.211667 -0.70555,0.211667 -0.42334,0 -0.42334,-0.352778 0,-0.352778 0.35278,-0.846666 0.42333,-0.564445 1.27,-0.987778 0.84667,-0.493889 2.18722,-0.846667 1.34056,-0.352778 3.175,-0.352778 2.68111,0 6.27945,0.917223 0.42333,0 1.12889,-0.987778 0.70555,-0.987778 1.48166,-2.116667 0.77612,-1.1994445 1.55223,-2.1872223 0.84666,-0.9877778 1.62277,-0.9877778 0.77612,0 0.77612,0.9172223 0,0.7055555 -0.91723,1.9755556 -0.84666,1.2700002 -1.76389,2.4694442 l -1.27,1.693334 q 1.55223,0.423333 2.75167,0.423333 1.27,0 2.18722,-0.282222 0.91723,-0.352778 1.55223,-0.705556 0.635,-0.423333 1.05833,-0.705555 0.42333,-0.352778 0.635,-0.352778 0.14111,0 0.28222,0.07056 z"
         style="font-style:normal;font-variant:normal;font-weight:normal;font-stretch:normal;font-size:70.55555725px;font-family:'Rosabelia SLDT';-inkscape-font-specification:'Rosabelia SLDT';fill:#fc4a1a;fill-opacity:1;stroke-width:0.26458332"
         id="path4599" />
      <path
         d="m 150.02509,28.776059 q 0.70556,-0.635 1.19945,-0.635 0.35278,0 0.35278,0.423333 0,0.564445 -0.21167,0.776111 l -0.56444,0.493889 v -0.07056 q -1.905,1.552222 -3.38667,2.751666 -1.48167,1.128889 -2.96333,2.116667 -1.48167,0.917222 -3.24556,1.693334 -1.69333,0.705555 -4.02167,1.340555 -0.56444,0.141111 -0.77611,0.282222 -0.14111,0.141111 -0.35278,0.493889 l -0.28222,0.564445 q -1.05833,1.693333 -2.61055,3.880555 -1.48167,2.257778 -3.31612,4.233334 -1.83444,1.975555 -3.95111,3.316111 -2.04611,1.411111 -4.16277,1.411111 -2.39889,0 -3.73945,-1.27 -1.34055,-1.199444 -1.34055,-2.822222 0,-2.469445 1.62277,-4.162778 1.55223,-1.622778 3.88056,-2.751667 2.25778,-1.128889 4.72722,-1.763889 2.54,-0.635 4.445,-1.058333 0.98778,-0.211667 1.83445,-0.423333 0.84666,-0.211667 0.98777,-0.211667 0.0706,-0.07056 0.42334,-0.776111 0.42333,-0.705556 0.98778,-1.763889 0.635,-1.058334 1.27,-2.257778 0.635,-1.27 1.19944,-2.398889 0.635,-1.128889 1.05833,-1.975556 0.49389,-0.846666 0.635,-1.128888 l -0.21166,-0.07056 -1.12889,1.199444 q -0.91722,0.987778 -2.18722,2.257778 -1.19945,1.27 -2.46945,2.398889 -1.19944,1.128889 -2.32833,1.975556 -1.05834,0.776111 -1.69334,0.776111 -1.19944,0 -1.62277,-0.423333 -0.42334,-0.423334 -0.42334,-1.27 0,-0.917223 0.42334,-2.116667 0.42333,-1.27 1.05833,-2.469445 0.635,-1.199444 1.27,-2.328333 0.70555,-1.128889 1.12889,-1.834445 l 0.42333,-0.635 q 0.70556,-1.128888 1.55222,-1.128888 0.91723,0 0.91723,0.987777 0,0.564445 -0.42334,1.27 -0.77611,1.27 -1.55222,2.54 -0.77611,1.27 -1.41111,2.469445 -0.635,1.128889 -1.05833,2.046111 -0.35278,0.846667 -0.35278,1.27 0,0.423333 0.42333,0.423333 0.35278,-0.07055 1.69333,-1.058333 1.34056,-1.058333 3.73945,-3.598333 l 1.27,-1.340556 q 0.77611,-0.846667 1.69333,-1.763889 0.91723,-0.987778 1.83445,-1.834444 0.91722,-0.846667 1.62278,-1.411111 0.70555,-0.564445 1.05833,-0.564445 0.98778,0 0.98778,1.058333 0,0.352778 -0.21167,0.776112 -0.98778,2.046111 -2.25778,4.303889 -1.19944,2.187222 -2.39889,4.374444 l -1.76389,3.175 q 1.83445,-0.493889 3.31612,-1.199444 1.48166,-0.705556 2.75166,-1.481667 1.34056,-0.846667 2.54,-1.763889 1.27,-0.987778 2.61056,-2.116667 z m -25.18833,20.813889 q 1.27,-0.776111 2.46944,-2.116666 1.27,-1.27 2.39889,-2.822223 1.12889,-1.481666 2.11667,-3.104444 0.98778,-1.552223 1.76389,-2.963334 l -2.75167,0.635 h 0.0706 q -1.41111,0.352778 -3.66889,0.917223 -2.25778,0.564444 -4.37445,1.481666 -2.11666,0.987778 -3.59833,2.398889 -1.55222,1.481667 -1.55222,3.457223 0,1.622777 1.12889,2.328333 1.05833,0.705556 2.46944,0.705556 1.905,0 3.52778,-0.917223 z"
         style="font-style:normal;font-variant:normal;font-weight:normal;font-stretch:normal;font-size:70.55555725px;font-family:'Rosabelia SLDT';-inkscape-font-specification:'Rosabelia SLDT';fill:#fc4a1a;fill-opacity:1;stroke-width:0.26458332"
         id="path4601" />
    </g>
  </g>
  <g
     style="display:none"
     inkscape:label="Tifinity-rosabelia blue"
     id="g4581"
     inkscape:groupmode="layer">
    <text
       id="text4575"
       y="39.006615"
       x="4.7859578"
       style="font-style:normal;font-variant:normal;font-weight:normal;font-stretch:normal;font-size:10.58333302px;line-height:1.25;font-family:'Freestyle Script';-inkscape-font-specification:'Freestyle Script';letter-spacing:0px;word-spacing:0px;display:inline;fill:#fc4a1a;fill-opacity:1;stroke:none;stroke-width:0.26458332"
       xml:space="preserve"><tspan
         style="font-style:normal;font-variant:normal;font-weight:normal;font-stretch:normal;font-size:70.55555725px;font-family:'Rosabelia SLDT';-inkscape-font-specification:'Rosabelia SLDT';fill:#337ca0;fill-opacity:1;stroke-width:0.26458332"
         y="39.006615"
         x="4.7859578"
         id="tspan4573"
         sodipodi:role="line">ti</tspan></text>
    <text
       id="text4579"
       y="39.006615"
       x="66.360535"
       style="font-style:normal;font-variant:normal;font-weight:normal;font-stretch:normal;font-size:10.58333302px;line-height:1.25;font-family:'Freestyle Script';-inkscape-font-specification:'Freestyle Script';letter-spacing:0px;word-spacing:0px;fill:#000000;fill-opacity:1;stroke:none;stroke-width:0.26458332"
       xml:space="preserve"><tspan
         style="font-style:normal;font-variant:normal;font-weight:normal;font-stretch:normal;font-size:70.55555725px;font-family:'Rosabelia SLDT';-inkscape-font-specification:'Rosabelia SLDT';fill:#337ca0;fill-opacity:1;stroke-width:0.26458332"
         y="39.006615"
         x="66.360535"
         id="tspan4577"
         sodipodi:role="line">inity</tspan></text>
  </g>
</svg>
